<?xml version="1.0" encoding="utf-8"?>
<svg version="1.1" xmlns="http://www.w3.org/2000/svg" xmlns:xlink="http://www.w3.org/1999/xlink" width="128px" height="128px" viewBox="0 0 128 128">
<g>
    <circle fill="#009BCD" cx="64" cy="64.001" r="64"/>
    <path d="M27.961,82.996l19.83-16.636c0.639-0.506,0.959-1.292,0.959-2.362c0-1.067-0.319-1.854-0.957-2.359L27.962,45.001
            c-2.101-1.759-3.152-3.946-3.152-6.559c0-2.33,0.839-4.331,2.513-6.006c1.677-1.675,3.678-2.514,6.007-2.514
            c1.989,0,3.949,0.795,5.879,2.382l60.828,50.692c2.101,1.761,3.151,3.949,3.151,6.561c0,2.33-0.836,4.332-2.513,6.008
            c-1.674,1.675-3.677,2.513-6.005,2.513c-1.987,0-3.947-0.794-5.878-2.386L67.65,78.072c-1.246-1.032-2.404-1.548-3.48-1.548
            c-1.3,0-2.572,0.518-3.818,1.551L39.208,95.695c-1.93,1.589-3.889,2.383-5.878,2.383c-2.329,0-4.33-0.838-6.006-2.513
            c-1.674-1.676-2.513-3.678-2.513-6.008C24.811,86.944,25.861,84.757,27.961,82.996z M78.24,41.098l10.55-8.794
            c1.932-1.587,3.892-2.382,5.879-2.382c2.33,0,4.333,0.839,6.007,2.514c1.677,1.676,2.513,3.677,2.513,6.006
            c0,2.614-1.05,4.8-3.151,6.561l-9.818,8.068c-1.985,1.664-3.971,2.494-5.956,2.494c-1.475,0-2.579-0.141-3.318-0.424
            c-0.737-0.283-1.646-0.965-2.724-2.043c-1.643-1.646-2.466-3.632-2.466-5.959C75.757,44.473,76.585,42.458,78.24,41.098z"/>
</g>
</svg>
